<svg xmlns="http://www.w3.org/2000/svg" version="1.1" xmlns:xlink="http://www.w3.org/1999/xlink" xmlns:svgjs="http://svgjs.dev/svgjs" width="100%" height="100%" viewBox="0 0 1000 600"><rect width="1000" height="600" x="0" y="0" fill="#234e70"/><g><rect width="333.3333333333333" height="333.3333333333333" y="387.43831243568997" fill="#fbf8be" transform="matrix(0.34226308919641946,0,0,0.34226308919641946,0,110.35031181598318)" x="365.21612548828125"/><path d="M397.0408140088212 627.8466753626012L397.0408140088212 480.3632636392019L457.0876316390623 480.3632636392019Q480.46843441029165 480.3632636392019 498.37713440527585 489.7272897803701Q516.28583440026 499.1205785032294 526.176587011869 515.8587752305675Q536.096602205169 532.6262345395969 536.096602205169 554.1049695009015L536.096602205169 554.1049695009015Q536.096602205169 575.583704462206 526.176587011869 592.3511637712354Q516.28583440026 609.0893604985736 498.37713440527585 618.4826492214329Q480.46843441029165 627.8466753626012 457.0876316390623 627.8466753626012L457.0876316390623 627.8466753626012L397.0408140088212 627.8466753626012ZM412.6377700502045 614.3566252029807L456.2390167700189 614.3566252029807Q475.61084584956063 614.3566252029807 490.1543489500625 606.660566218208Q504.6978520505644 598.9937698151266 512.7157994339397 585.3866693287416Q520.7044842356238 571.8088314240476 520.7044842356238 554.1049695009015L520.7044842356238 554.1049695009015Q520.7044842356238 536.4011075777553 512.7157994339397 522.8232696730615Q504.6978520505644 509.2161691866764 490.1543489500625 501.54937278359495Q475.61084584956063 493.85331379882234 456.2390167700189 493.85331379882234L456.2390167700189 493.85331379882234L412.6377700502045 493.85331379882234L412.6377700502045 614.3566252029807ZM611.7403758767935 629.1049663753206Q595.2948049663667 629.1049663753206 580.2245753954242 623.8377016709135Q565.1543458244815 618.5704369665063 556.9608229509595 609.9379753676169L556.9608229509595 609.9379753676169L563.0474399427187 597.9403168742451Q571.0653873260941 605.9290016759294 584.3505994138764 610.8743779817337Q597.6065489199676 615.8490168692294 611.7403758767935 615.8490168692294L611.7403758767935 615.8490168692294Q631.5218811000112 615.8490168692294 641.4418962933113 608.5626340281328Q651.3326489049202 601.3055137687275 651.3326489049202 589.7175314190317L651.3326489049202 589.7175314190317Q651.3326489049202 580.8509691666131 645.9775964554397 575.583704462206Q640.5932814242678 570.3164397577989 632.8094346944218 567.4779693337573Q624.9963253828846 564.6394989097157 611.096599079588 561.2743020152334L611.096599079588 561.2743020152334Q594.4461900973233 557.0604902517077 584.5554374857145 553.1685668867847Q574.6354222924144 549.2473809401705 567.5831401048471 541.2586961384864Q560.5308579172797 533.2407487551111 560.5308579172797 519.5458605236527L560.5308579172797 519.5458605236527Q560.5308579172797 508.39681689932416 566.4418994188921 499.20836624830287Q572.3236783388135 490.04917817897274 584.5554374857145 484.5770754027276Q596.7579340509243 479.1049726264824 614.9007346994376 479.1049726264824L614.9007346994376 479.1049726264824Q627.5421699900148 479.1049726264824 639.656878810151 482.58721984772933Q651.7715876302875 486.0402044872851 660.6088873010149 492.1560840607356L660.6088873010149 492.1560840607356L655.3416225966077 504.5926812794746Q646.0653842005131 498.4768017060241 635.5308547916989 495.4334932101445Q624.9963253828846 492.36092213257365 614.9007346994376 492.36092213257365L614.9007346994376 492.36092213257365Q595.4996430382048 492.36092213257365 585.6966781716694 499.85214304550817Q575.922975886825 507.3433639584428 575.922975886825 519.1361843799765L575.922975886825 519.1361843799765Q575.922975886825 527.973484050704 581.2780283363056 533.3577990818757Q586.6623433674773 538.7128515313563 594.768078495926 541.580584537089Q602.8738136243747 544.4190549611305 616.5687018558333 547.7842518556129L616.5687018558333 547.7842518556129Q632.8094346944218 551.7932255473006 642.8172376327955 555.6851489122237Q652.825040571169 559.5770722771466 659.7602724319715 567.4779693337573Q666.7247668744653 575.3788663903681 666.7247668744653 588.8689165499884L666.7247668744653 588.8689165499884Q666.7247668744653 600.0472227560081 660.7259376277796 609.2064108253383Q654.6978457994026 618.3655988946682 642.2905111623547 623.74991392584Q629.8539139436157 629.1049663753206 611.7403758767935 629.1049663753206L611.7403758767935 629.1049663753206Z " fill="#234e70" transform="matrix(0.34226308919641946,0,0,0.34226308919641946,0,110.35031181598318)"/><path d="M911.6658230897935 607.2607895957583L918.0514242513074 614.9037871249834Q912.3561583504977 621.8317945627648 904.6391963290545 625.4560546814616Q896.9222343076111 629.1049696308983 887.8739114262382 629.1049696308983L887.8739114262382 629.1049696308983Q876.8532020857106 629.1049696308983 867.0159246206758 623.6809068682223Q857.1539923249017 618.281498936286 844.9005414474022 605.485641782519L844.9005414474022 605.485641782519Q826.9764794998326 604.9678903369909 812.6027131787417 596.6099027163223Q798.2289468576507 588.276569926393 790.0681978828977 574.0753874204781Q781.8827940774052 559.8742049145633 781.8827940774052 542.2953105973457L781.8827940774052 542.2953105973457Q781.8827940774052 524.3712486497761 790.314746190292 509.99748232868524Q798.746698303179 495.5990611768549 813.7614902234952 487.3643477098835Q828.7516273130719 479.10497941217255 847.2180955369091 479.10497941217255L847.2180955369091 479.10497941217255Q865.6845637607463 479.10497941217255 880.5021170351471 487.2657283869257Q895.3196703095477 495.42647736167885 903.8502417453925 509.8988630057275Q912.3561583504977 524.3712486497761 912.3561583504977 542.2953105973457L912.3561583504977 542.2953105973457Q912.3561583504977 557.9264732861478 905.8965926967657 570.9688787473092Q899.4123722122941 584.0112842084707 887.7752921032805 592.7144394594914Q876.1628668250064 601.417594710512 861.0741104124719 604.2529002455472L861.0741104124719 604.2529002455472Q874.7328866421192 618.626666566638 888.0464952414143 618.626666566638L888.0464952414143 618.626666566638Q901.902510116977 618.626666566638 911.6658230897935 607.2607895957583L911.6658230897935 607.2607895957583ZM794.8512350463482 542.2953105973457Q794.8512350463482 556.8416607336127 801.6806231611718 568.577360165584Q808.5100112759953 580.2884047668158 820.492259015361 587.0191735586818Q832.4745067547267 593.7745971812872 847.2180955369091 593.7745971812872L847.2180955369091 593.7745971812872Q861.9616843190915 593.7745971812872 873.8453127354994 587.0191735586818Q885.7289411519074 580.2884047668158 892.4843647745128 568.577360165584Q899.2397883971181 556.8416607336127 899.2397883971181 542.2953105973457L899.2397883971181 542.2953105973457Q899.2397883971181 527.7489604610788 892.4843647745128 516.0132610291075Q885.7289411519074 504.30221642787563 873.8453127354994 497.57144763600974Q861.9616843190915 490.8160240134044 847.2180955369091 490.8160240134044L847.2180955369091 490.8160240134044Q832.4745067547267 490.8160240134044 820.492259015361 497.57144763600974Q808.5100112759953 504.30221642787563 801.6806231611718 516.0132610291075Q794.8512350463482 527.7489604610788 794.8512350463482 542.2953105973457L794.8512350463482 542.2953105973457ZM1041.054374810351 604.4254840607232L1026.68060848926 604.4254840607232L998.2782434774305 564.4846582628377Q993.4952063139799 565.0270645391053 988.342346689438 565.0270645391053L988.342346689438 565.0270645391053L954.9597058682423 565.0270645391053L954.9597058682423 604.4254840607232L941.8433359148626 604.4254840607232L941.8433359148626 480.16513713396824L988.342346689438 480.16513713396824Q1012.1342583529932 480.16513713396824 1025.6204507674643 491.53101410484805Q1039.1066431819356 502.8968910757278 1039.1066431819356 522.7686846517129L1039.1066431819356 522.7686846517129Q1039.1066431819356 537.3150347879798 1031.7348487908444 547.34955089893Q1024.3877092304926 557.3840670098803 1010.7042781701059 561.8219365429786L1010.7042781701059 561.8219365429786L1041.054374810351 604.4254840607232ZM987.9971790590859 553.8337713834015Q1006.4389924521836 553.8337713834015 1016.2023054250001 545.6730224086484Q1025.9656183978166 537.5122734338952 1025.9656183978166 522.7686846517129L1025.9656183978166 522.7686846517129Q1025.9656183978166 507.6799282391783 1016.2023054250001 499.5931437566434Q1006.4389924521836 491.53101410484805 987.9971790590859 491.53101410484805L987.9971790590859 491.53101410484805L954.9597058682423 491.53101410484805L954.9597058682423 553.8337713834015L987.9971790590859 553.8337713834015ZM1150.9409554160152 605.485641782519Q1137.1095953711917 605.485641782519 1124.4123575403823 601.0477722494206Q1111.7151197095732 596.6099027163223 1104.7871122717918 589.3367276481888L1104.7871122717918 589.3367276481888L1109.9399718963339 579.2282470450202Q1116.6953955189392 585.959015836886 1127.8640338439034 590.1256822318505Q1139.057326999607 594.3170034575546 1150.9409554160152 594.3170034575546L1150.9409554160152 594.3170034575546Q1167.6322758266128 594.3170034575546 1175.965608616542 588.1779506034352Q1184.3235962372107 582.0635525800553 1184.3235962372107 572.3002396072388L1184.3235962372107 572.3002396072388Q1184.3235962372107 564.8298258931898 1179.7871073811548 560.3919563600914Q1175.275273355838 555.954086826993 1168.6924335484086 553.5625682452678Q1162.1342485717187 551.1710496635426 1150.423203970487 548.3357441285075L1150.423203970487 548.3357441285075Q1136.3946052797482 544.7854485020287 1128.0366176590796 541.5063560136838Q1119.7032848691504 538.2026086945995 1113.7614706609463 531.4718399027336Q1107.8196564527425 524.7164162801282 1107.8196564527425 513.1779554940724L1107.8196564527425 513.1779554940724Q1107.8196564527425 503.7844649823475 1112.775277431369 496.0428481301647Q1117.755553240735 488.3258861087214 1128.0366176590796 483.71543276044696Q1138.3423369081636 479.10497941217255 1153.603677135874 479.10497941217255L1153.603677135874 479.10497941217255Q1164.2545640153103 479.10497941217255 1174.4616639414367 482.03890427016535Q1184.668763867563 484.94817429741875 1192.1391775816119 490.1010339219608L1192.1391775816119 490.1010339219608L1187.7013080485135 500.5793369862209Q1179.8857267041124 495.42647736167885 1171.0099876379156 492.86237496477753Q1162.1342485717187 490.2736177371368 1153.603677135874 490.2736177371368L1153.603677135874 490.2736177371368Q1137.2821791863678 490.2736177371368 1129.022810888657 496.5852544064323Q1120.763442590946 502.8968910757278 1120.763442590946 512.8327878637203L1120.763442590946 512.8327878637203Q1120.763442590946 520.2785467470298 1125.299931447002 524.815035603086Q1129.811765472319 529.3268696284026 1136.6658084178819 531.7430430408674Q1143.4951965327054 534.1345616225926 1155.0336573187615 536.9698671576277L1155.0336573187615 536.9698671576277Q1168.6924335484086 540.3475789689303 1177.1243856612955 543.6266714572753Q1185.5563377741826 546.9057639456202 1191.4241874901682 553.5625682452678Q1197.2673823754144 560.2193725449154 1197.2673823754144 571.5852495157951L1197.2673823754144 571.5852495157951Q1197.2673823754144 581.0033948582595 1192.21314207383 588.7203568797029Q1187.1589017722458 596.4373189011462 1176.6805987079858 600.9738077572022Q1166.2022956437256 605.485641782519 1150.9409554160152 605.485641782519L1150.9409554160152 605.485641782519ZM1261.8876937434748 605.313057967343Q1248.0563336986515 605.313057967343 1237.1342436810814 599.2726244361811Q1226.2121536635118 593.2321909050195 1219.999136317174 582.334755718189Q1213.786118970836 571.4126657006191 1213.786118970836 557.7292346402323L1213.786118970836 557.7292346402323Q1213.786118970836 544.0704584105852 1219.999136317174 533.2469877159729Q1226.2121536635118 522.4235170213608 1237.1342436810814 516.3830834901989Q1248.0563336986515 510.3426499590373 1261.8876937434748 510.3426499590373L1261.8876937434748 510.3426499590373Q1273.9685608057982 510.3426499590373 1283.4606706404809 515.0517226302695Q1292.9527804751638 519.7607953015017 1298.4508077300577 528.8091181828745L1298.4508077300577 528.8091181828745L1289.0573172183326 535.1947193443883Q1284.4468638700585 528.2667119066069 1277.346272617101 524.815035603086Q1270.2456813641434 521.3387044688255 1261.8876937434748 521.3387044688255L1261.8876937434748 521.3387044688255Q1251.7792131403064 521.3387044688255 1243.6924286577714 525.8751933248817Q1235.6302990059762 530.4116821809378 1231.09381014992 538.745014970867Q1226.5573212938639 547.0783477607962 1226.5573212938639 557.7292346402323L1226.5573212938639 557.7292346402323Q1226.5573212938639 568.577360165584 1231.09381014992 576.8120736325554Q1235.6302990059762 585.0714419302665 1243.6924286577714 589.6079307863224Q1251.7792131403064 594.1197648116392 1261.8876937434748 594.1197648116392L1261.8876937434748 594.1197648116392Q1270.2456813641434 594.1197648116392 1277.346272617101 590.766707831076Q1284.4468638700585 587.3889960197732 1289.0573172183326 580.4609885819918L1289.0573172183326 580.4609885819918L1298.4508077300577 586.8465897435058Q1292.9527804751638 595.8949126248785 1283.362051317523 600.6039852961107Q1273.7959769906222 605.313057967343 1261.8876937434748 605.313057967343L1261.8876937434748 605.313057967343ZM1355.7979440299846 510.3426499590373Q1374.0918284386457 510.3426499590373 1383.8551414114622 519.4895921633679Q1393.6184543842787 528.6365343676985 1393.6184543842787 546.5605963152681L1393.6184543842787 546.5605963152681L1393.6184543842787 604.4254840607232L1381.5375873219555 604.4254840607232L1381.5375873219555 589.8791339244563Q1377.2723016040331 597.1523089925897 1369.012933306322 601.2203560645967Q1360.7782198393506 605.313057967343 1349.412342868471 605.313057967343L1349.412342868471 605.313057967343Q1333.7811801796688 605.313057967343 1324.56027348312 597.8672990840334Q1315.3147119558316 590.3968853699844 1315.3147119558316 578.1434344924851L1315.3147119558316 578.1434344924851Q1315.3147119558316 566.259806076077 1323.943902714634 558.9866310079435Q1332.548438642697 551.71345593981 1351.3600744968862 551.71345593981L1351.3600744968862 551.71345593981L1380.9951810456878 551.71345593981L1380.9951810456878 546.0181900390005Q1380.9951810456878 533.9619778074166 1374.2644122538218 527.6503411381211Q1367.5089886312167 521.3387044688255 1354.565202493013 521.3387044688255L1354.565202493013 521.3387044688255Q1345.689463426816 521.3387044688255 1337.5040596213234 524.2726293268183Q1329.3433106465704 527.2065541848112 1323.5001157613242 532.3594138093532L1323.5001157613242 532.3594138093532L1317.8048498605147 522.9412684668889Q1324.905441113472 516.9008349357272 1334.8413379014646 513.6217424473823Q1344.8018895201965 510.3426499590373 1355.7979440299846 510.3426499590373L1355.7979440299846 510.3426499590373ZM1351.3600744968862 595.3771611793504Q1362.0109613763225 595.3771611793504 1369.6539589055474 590.4955046929422Q1377.2723016040331 585.6138482065339 1380.9951810456878 576.3682866792456L1380.9951810456878 576.3682866792456L1380.9951810456878 561.106946451535L1351.7052421272383 561.106946451535Q1327.740746648507 561.106946451535 1327.740746648507 577.798266862133L1327.740746648507 577.798266862133Q1327.740746648507 585.959015836886 1333.9537639948448 590.6680885081182Q1340.1667813411827 595.3771611793504 1351.3600744968862 595.3771611793504L1351.3600744968862 595.3771611793504ZM1475.4478376084653 510.3426499590373Q1493.0267319256827 510.3426499590373 1503.4064156669851 520.5497498851637Q1513.7860994082876 530.7568498112898 1513.7860994082876 550.2834757569228L1513.7860994082876 550.2834757569228L1513.7860994082876 604.4254840607232L1501.1874809004357 604.4254840607232L1501.1874809004357 551.5162172938947Q1501.1874809004357 536.9698671576277 1493.9143058323025 529.3268696284026Q1486.6164759334295 521.7085269299171 1473.130283518958 521.7085269299171L1473.130283518958 521.7085269299171Q1458.0415271064237 521.7085269299171 1449.2644073631848 530.6582304883322Q1440.4626327892063 539.6325888774867 1440.4626327892063 555.4363353814649L1440.4626327892063 555.4363353814649L1440.4626327892063 604.4254840607232L1427.8640142813547 604.4254840607232L1427.8640142813547 511.057640050481L1439.944881343678 511.057640050481L1439.944881343678 528.2667119066069Q1445.09774096822 519.7607953015017 1454.2200283418113 515.0517226302695Q1463.3669705461416 510.3426499590373 1475.4478376084653 510.3426499590373L1475.4478376084653 510.3426499590373ZM1693.4211961758144 598.0398828992095L1686.148021107681 606.3732156891385L1668.9389492515547 588.6217375567451Q1653.1352027475768 605.485641782519 1627.3955594556062 605.485641782519L1627.3955594556062 605.485641782519Q1615.3146923932827 605.485641782519 1605.8225825586 601.4915592027305Q1596.3304727239174 597.4974766229418 1591.0050292841993 590.3229208777661Q1585.6795858444812 583.1237103018509 1585.6795858444812 573.9028036053021L1585.6795858444812 573.9028036053021Q1585.6795858444812 562.7095104495984 1592.7801770974388 553.8337713834015Q1599.880768350396 544.9580323172047 1616.9172563913462 535.1947193443883L1616.9172563913462 535.1947193443883Q1608.0415173251492 525.9738126478394 1604.6638055138465 519.4895921633679Q1601.3107485332835 513.0053716788964 1601.3107485332835 505.73219661076286L1601.3107485332835 505.73219661076286Q1601.3107485332835 493.82391336361553 1609.8166651383888 486.55073829548206Q1618.3472365742334 479.2775632273486 1632.721002895324 479.2775632273486L1632.721002895324 479.2775632273486Q1646.0346114946196 479.2775632273486 1653.8501928390206 485.83574820403845Q1661.6657741834215 492.4185880114677 1661.6657741834215 503.95704879752356L1661.6657741834215 503.95704879752356Q1661.6657741834215 513.1779554940724 1655.4527568370836 520.5497498851637Q1649.2397394907462 527.9215442762548 1633.953744432296 536.7972833424517L1633.953744432296 536.7972833424517L1668.0513753449354 571.9304171461472Q1673.7219864150056 561.8219365429786 1676.3847081348645 547.9659216674158L1676.3847081348645 547.9659216674158L1686.6904273839486 551.1710496635426Q1683.312715572646 567.8623700741405 1675.6697180434207 579.7459984905483L1675.6697180434207 579.7459984905483L1693.4211961758144 598.0398828992095ZM1632.721002895324 488.69570856981295Q1623.5000961987753 488.69570856981295 1618.2486172512758 493.3061619180874Q1613.0217931345153 497.9166152663618 1613.0217931345153 505.5596127955868L1613.0217931345153 505.5596127955868Q1613.0217931345153 511.057640050481 1615.8570986695504 516.0132610291075Q1618.6924042045853 520.9935368384735 1627.050391825254 529.5241082743182L1627.050391825254 529.5241082743182Q1640.5365842397252 521.7085269299171 1645.6894438642673 516.2104996750229Q1650.81764865807 510.6878175893894 1650.81764865807 504.1296326126996L1650.81764865807 504.1296326126996Q1650.81764865807 497.02904135974217 1646.0346114946196 492.86237496477753Q1641.251574331169 488.69570856981295 1632.721002895324 488.69570856981295L1632.721002895324 488.69570856981295ZM1628.11054954705 595.0073387182588Q1648.6973332144785 595.0073387182588 1661.4685355375059 581.0033948582595L1661.4685355375059 581.0033948582595L1624.0178476443034 542.4678944125218Q1609.2989136928604 550.8258820331904 1603.7022671150085 557.5566508250563Q1598.105620537157 564.3120744476616 1598.105620537157 572.6454072375909L1598.105620537157 572.6454072375909Q1598.105620537157 582.7785426714988 1606.3649888348677 588.8929406948789Q1614.6243571325786 595.0073387182588 1628.11054954705 595.0073387182588L1628.11054954705 595.0073387182588ZM1850.0040262019693 584.1838680236467L1850.0040262019693 542.2953105973457L1862.6026447098207 542.2953105973457L1862.6026447098207 589.6818952785409Q1853.8994894588 597.3248928077658 1842.0158610423923 601.417594710512Q1830.1075777952447 605.485641782519 1816.9912078418652 605.485641782519L1816.9912078418652 605.485641782519Q1798.352155802852 605.485641782519 1783.4359832054936 597.3248928077658Q1768.5198106081352 589.1641438330128 1759.9892391722901 574.6917581889641Q1751.483322567185 560.2193725449154 1751.483322567185 542.2953105973457L1751.483322567185 542.2953105973457Q1751.483322567185 524.3712486497761 1759.9892391722901 509.8988630057275Q1768.5198106081352 495.42647736167885 1783.4359832054936 487.2657283869257Q1798.352155802852 479.10497941217255 1817.1637916570412 479.10497941217255L1817.1637916570412 479.10497941217255Q1831.364974162956 479.10497941217255 1843.2486025793642 483.61681343748927Q1855.1568858265114 488.1533022935454 1863.3176348012644 497.02904135974217L1863.3176348012644 497.02904135974217L1855.1568858265114 505.3623741496713Q1840.4132970443288 490.8160240134044 1817.6815431025693 490.8160240134044L1817.6815431025693 490.8160240134044Q1802.5927866900347 490.8160240134044 1790.4379551354932 497.472828313052Q1778.2831235809515 504.1296326126996 1771.35511614317 515.9392965368892Q1764.4271087053887 527.7489604610788 1764.4271087053887 542.2953105973457L1764.4271087053887 542.2953105973457Q1764.4271087053887 556.8416607336127 1771.35511614317 568.577360165584Q1778.2831235809515 580.2884047668158 1790.3639906432747 587.0191735586818Q1802.4202028748587 593.7745971812872 1817.5089592873933 593.7745971812872L1817.5089592873933 593.7745971812872Q1836.6904176026742 593.7745971812872 1850.0040262019693 584.1838680236467L1850.0040262019693 584.1838680236467ZM1978.5296588466467 557.7292346402323L1978.3324202007311 561.6493527278026L1900.2259164181992 561.6493527278026Q1901.3107289707345 576.1957028640695 1911.4192095739031 585.170061253224Q1921.5276901770717 594.1197648116392 1936.986269050698 594.1197648116392L1936.986269050698 594.1197648116392Q1945.6894243017186 594.1197648116392 1952.962599369852 591.0132561384703Q1960.2357744379856 587.9067474653014 1965.5612178777037 581.8909687648793L1965.5612178777037 581.8909687648793L1972.661809130661 590.0517177396323Q1966.448791784323 597.4974766229418 1957.1292657648164 601.417594710512Q1947.8097397453098 605.313057967343 1936.6164465896063 605.313057967343L1936.6164465896063 605.313057967343Q1922.2426802685154 605.313057967343 1911.1480064357693 599.1986599439629Q1900.0533326030231 593.0596070898434 1893.8403152566857 582.2361363952314Q1887.6272979103478 571.4126657006191 1887.6272979103478 557.7292346402323L1887.6272979103478 557.7292346402323Q1887.6272979103478 544.0704584105852 1893.5691121185519 533.2469877159729Q1899.5355811574955 522.4235170213608 1909.9152648987974 516.3830834901989Q1920.2949486400998 510.3426499590373 1933.2633896090429 510.3426499590373L1933.2633896090429 510.3426499590373Q1946.2071757472468 510.3426499590373 1956.5128949963305 516.3830834901989Q1966.793959414675 522.4235170213608 1972.661809130661 533.1483683930152Q1978.5296588466467 543.897874595409 1978.5296588466467 557.7292346402323L1978.5296588466467 557.7292346402323ZM1933.2633896090429 521.1661206536495Q1919.7525423638322 521.1661206536495 1910.6302549902412 529.7706565817125Q1901.4833127859106 538.399847340515 1900.2259164181992 552.2312073853382L1900.2259164181992 552.2312073853382L1966.448791784323 552.2312073853382Q1965.2160502473512 538.399847340515 1956.069108043021 529.7706565817125Q1946.92216583869 521.1661206536495 1933.2633896090429 521.1661206536495L1933.2633896090429 521.1661206536495ZM2051.8284706349887 510.3426499590373Q2069.407364952206 510.3426499590373 2079.787048693508 520.5497498851637Q2090.1667324348105 530.7568498112898 2090.1667324348105 550.2834757569228L2090.1667324348105 550.2834757569228L2090.1667324348105 604.4254840607232L2077.568113926959 604.4254840607232L2077.568113926959 551.5162172938947Q2077.568113926959 536.9698671576277 2070.294938858826 529.3268696284026Q2063.021763790692 521.7085269299171 2049.5355713762206 521.7085269299171L2049.5355713762206 521.7085269299171Q2034.4468149636864 521.7085269299171 2025.645040389708 530.6582304883322Q2016.8679206464685 539.6325888774867 2016.8679206464685 555.4363353814649L2016.8679206464685 555.4363353814649L2016.8679206464685 604.4254840607232L2004.2693021386171 604.4254840607232L2004.2693021386171 511.057640050481L2016.3255143702013 511.057640050481L2016.3255143702013 528.2667119066069Q2021.4783739947434 519.7607953015017 2030.625316199074 515.0517226302695Q2039.7722584034045 510.3426499590373 2051.8284706349887 510.3426499590373L2051.8284706349887 510.3426499590373ZM2206.2663303868126 557.7292346402323L2206.093746571636 561.6493527278026L2127.9872427891046 561.6493527278026Q2129.0474005109004 576.1957028640695 2139.180535944808 585.170061253224Q2149.289016547977 594.1197648116392 2164.722940590864 594.1197648116392L2164.722940590864 594.1197648116392Q2173.426095841884 594.1197648116392 2180.6992709100177 591.0132561384703Q2187.9971008088905 587.9067474653014 2193.3225442486087 581.8909687648793L2193.3225442486087 581.8909687648793L2200.4231355015663 590.0517177396323Q2194.2101181552284 597.4974766229418 2184.890592135722 601.417594710512Q2175.571066116215 605.313057967343 2164.3777729605113 605.313057967343L2164.3777729605113 605.313057967343Q2150.0040066394204 605.313057967343 2138.9093328066747 599.1986599439629Q2127.8146589739285 593.0596070898434 2121.6016416275907 582.2361363952314Q2115.388624281253 571.4126657006191 2115.388624281253 557.7292346402323L2115.388624281253 557.7292346402323Q2115.388624281253 544.0704584105852 2121.330438489457 533.2469877159729Q2127.272252697661 522.4235170213608 2137.6519364389633 516.3830834901989Q2148.0562750110053 510.3426499590373 2161.0000611492087 510.3426499590373L2161.0000611492087 510.3426499590373Q2173.9685021181517 510.3426499590373 2184.2495665364963 516.3830834901989Q2194.5552857855805 522.4235170213608 2200.4231355015663 533.1483683930152Q2206.2663303868126 543.897874595409 2206.2663303868126 557.7292346402323L2206.2663303868126 557.7292346402323ZM2161.0000611492087 521.1661206536495Q2147.5138687347376 521.1661206536495 2138.366926530407 529.7706565817125Q2129.2199843260764 538.399847340515 2127.9872427891046 552.2312073853382L2127.9872427891046 552.2312073853382L2194.2101181552284 552.2312073853382Q2192.9527217875175 538.399847340515 2183.805779583187 529.7706565817125Q2174.6834922095954 521.1661206536495 2161.0000611492087 521.1661206536495L2161.0000611492087 521.1661206536495ZM2244.0868407411062 529.3268696284026Q2248.524710274205 519.9333791166778 2257.3018300174435 515.1256871224878Q2266.1036045914225 510.3426499590373 2279.047390729626 510.3426499590373L2279.047390729626 510.3426499590373L2279.047390729626 522.5961008365368L2276.0395013794146 522.4235170213608Q2261.2959125972325 522.4235170213608 2252.962579807303 531.4718399027336Q2244.6045921866344 540.5201627841063 2244.6045921866344 556.8416607336127L2244.6045921866344 556.8416607336127L2244.6045921866344 604.4254840607232L2232.005973678783 604.4254840607232L2232.005973678783 511.057640050481L2244.0868407411062 511.057640050481L2244.0868407411062 529.3268696284026ZM2334.2495567552223 510.3426499590373Q2352.543441163883 510.3426499590373 2362.3067541366995 519.4895921633679Q2372.070067109516 528.6365343676985 2372.070067109516 546.5605963152681L2372.070067109516 546.5605963152681L2372.070067109516 604.4254840607232L2359.9892000471928 604.4254840607232L2359.9892000471928 589.8791339244563Q2355.7485691600095 597.1523089925897 2347.4892008622987 601.2203560645967Q2339.229832564588 605.313057967343 2327.8639555937084 605.313057967343L2327.8639555937084 605.313057967343Q2312.2574477356457 605.313057967343 2303.0118862083573 597.8672990840334Q2293.7909795118085 590.3968853699844 2293.7909795118085 578.1434344924851L2293.7909795118085 578.1434344924851Q2293.7909795118085 566.259806076077 2302.395515439872 558.9866310079435Q2311.0000513679342 551.71345593981 2329.811687222124 551.71345593981L2329.811687222124 551.71345593981L2359.4714486016646 551.71345593981L2359.4714486016646 546.0181900390005Q2359.4714486016646 533.9619778074166 2352.716024979059 527.6503411381211Q2345.985256187193 521.3387044688255 2333.01681521825 521.3387044688255L2333.01681521825 521.3387044688255Q2324.1410761520533 521.3387044688255 2315.9803271773003 524.2726293268183Q2307.819578202547 527.2065541848112 2301.9517284865615 532.3594138093532L2301.9517284865615 532.3594138093532L2296.2811174164913 522.9412684668889Q2303.381708669449 516.9008349357272 2313.3176054574415 513.6217424473823Q2323.2535022454335 510.3426499590373 2334.2495567552223 510.3426499590373L2334.2495567552223 510.3426499590373ZM2329.811687222124 595.3771611793504Q2340.4625741015598 595.3771611793504 2348.1055716307847 590.4955046929422Q2355.7485691600095 585.6138482065339 2359.4714486016646 576.3682866792456L2359.4714486016646 576.3682866792456L2359.4714486016646 561.106946451535L2330.181509683215 561.106946451535Q2306.217014204484 561.106946451535 2306.217014204484 577.798266862133L2306.217014204484 577.798266862133Q2306.217014204484 585.959015836886 2312.4300315508212 590.6680885081182Q2318.643048897159 595.3771611793504 2329.811687222124 595.3771611793504L2329.811687222124 595.3771611793504ZM2451.0641447986673 589.6818952785409L2455.5020143317656 598.754872990653Q2451.9517187052875 601.9353461560402 2446.7248945885267 603.6365294770612Q2441.473415641027 605.313057967343 2435.802804570957 605.313057967343L2435.802804570957 605.313057967343Q2422.6617797868375 605.313057967343 2415.5611885338803 598.2124667143855Q2408.4605972809227 591.1118754614281 2408.4605972809227 578.1434344924851L2408.4605972809227 578.1434344924851L2408.4605972809227 521.7085269299171L2391.769276870325 521.7085269299171L2391.769276870325 511.057640050481L2408.4605972809227 511.057640050481L2408.4605972809227 490.64344019822835L2421.0592157887745 490.64344019822835L2421.0592157887745 511.057640050481L2449.461580800604 511.057640050481L2449.461580800604 521.7085269299171L2421.0592157887745 521.7085269299171L2421.0592157887745 577.4530992317807Q2421.0592157887745 585.78643202171 2425.225882183739 590.1256822318505Q2429.417203409443 594.4895872727307 2437.2081299231045 594.4895872727307L2437.2081299231045 594.4895872727307Q2441.128248010675 594.4895872727307 2444.752508129372 593.2321909050195Q2448.4014230788084 591.9994493680476 2451.0641447986673 589.6818952785409L2451.0641447986673 589.6818952785409ZM2556.512855871233 557.7292346402323L2556.340272056057 561.6493527278026L2478.233768273525 561.6493527278026Q2479.2939259953214 576.1957028640695 2489.4024065984895 585.170061253224Q2499.5355420323976 594.1197648116392 2514.969466075284 594.1197648116392L2514.969466075284 594.1197648116392Q2523.672621326305 594.1197648116392 2530.9457963944383 591.0132561384703Q2538.218971462572 587.9067474653014 2543.5444149022896 581.8909687648793L2543.5444149022896 581.8909687648793L2550.6450061552473 590.0517177396323Q2544.43198880891 597.4974766229418 2535.1124627894033 601.417594710512Q2525.7929367698966 605.313057967343 2514.624298444932 605.313057967343L2514.624298444932 605.313057967343Q2500.225877293102 605.313057967343 2489.131203460356 599.1986599439629Q2478.03652962761 593.0596070898434 2471.823512281272 582.2361363952314Q2465.610494934934 571.4126657006191 2465.610494934934 557.7292346402323L2465.610494934934 557.7292346402323Q2465.610494934934 544.0704584105852 2471.576963973878 533.2469877159729Q2477.518778182082 522.4235170213608 2487.8984619233843 516.3830834901989Q2498.2781456646862 510.3426499590373 2511.2465866336292 510.3426499590373L2511.2465866336292 510.3426499590373Q2524.190372771833 510.3426499590373 2534.4960920209173 516.3830834901989Q2544.801811270001 522.4235170213608 2550.6450061552473 533.1483683930152Q2556.512855871233 543.897874595409 2556.512855871233 557.7292346402323L2556.512855871233 557.7292346402323ZM2511.2465866336292 521.1661206536495Q2497.7603942191586 521.1661206536495 2488.613452014828 529.7706565817125Q2479.466509810497 538.399847340515 2478.233768273525 552.2312073853382L2478.233768273525 552.2312073853382L2544.43198880891 552.2312073853382Q2543.199247271938 538.399847340515 2534.052305067607 529.7706565817125Q2524.905362863277 521.1661206536495 2511.2465866336292 521.1661206536495L2511.2465866336292 521.1661206536495Z " fill="#fbf8be" transform="matrix(0.34226308919641946,0,0,0.34226308919641946,0,110.35031181598318)"/></g></svg>